<svg xmlns="http://www.w3.org/2000/svg" width="60" height="19" viewBox="0 0 60 19">
    <g fill="none" fill-rule="evenodd">
        <g>
            <g>
                <g>
                    <text fill="#6D747F" font-family="Roboto-Bold, Roboto" font-size="8" font-weight="bold" transform="translate(-608 -755) translate(381 744) translate(228 12)">
                        <tspan x="23" y="7">Correo</tspan> <tspan x="23" y="16">Empresas</tspan>
                    </text>
                    <path stroke="#6D747F" stroke-linecap="round" stroke-width="2" d="M8.499 0c4.693 0 8.498 3.805 8.498 8.499 0 4.693-3.805 8.498-8.498 8.498-4.694 0-8.5-3.805-8.5-8.498C0 3.805 3.806 0 8.5 0z" transform="translate(-608 -755) translate(381 744) translate(228 12)"/>
                    <path fill="#020303" fill-rule="nonzero" d="M8.499 13.465c-2.739 0-4.967-2.228-4.967-4.966 0-2.74 2.228-4.967 4.967-4.967 2.738 0 4.966 2.228 4.966 4.967 0 1.844-1.108 2.674-1.896 2.674-1.542 0-1.542-1.264-1.542-2.101V6.015c0-.105.085-.19.19-.19.106 0 .192.085.192.19v3.057c0 1.006.083 1.719 1.16 1.719.495 0 1.514-.56 1.514-2.292 0-2.528-2.056-4.585-4.584-4.585-2.528 0-4.585 2.057-4.585 4.585s2.057 4.584 4.585 4.584c1.225 0 2.376-.477 3.242-1.342.074-.075.196-.075.27 0 .075.075.075.196 0 .27-.938.938-2.185 1.454-3.512 1.454" transform="translate(-608 -755) translate(381 744) translate(228 12)"/>
                    <path stroke="#6D747F" stroke-linecap="round" stroke-linejoin="round" d="M8.499 13.465c-2.739 0-4.967-2.228-4.967-4.966 0-2.74 2.228-4.967 4.967-4.967 2.738 0 4.966 2.228 4.966 4.967 0 1.844-1.108 2.674-1.896 2.674-1.542 0-1.542-1.264-1.542-2.101V6.015c0-.105.085-.19.19-.19.106 0 .192.085.192.19v3.057c0 1.006.083 1.719 1.16 1.719.495 0 1.514-.56 1.514-2.292 0-2.528-2.056-4.585-4.584-4.585-2.528 0-4.585 2.057-4.585 4.585s2.057 4.584 4.585 4.584c1.225 0 2.376-.477 3.242-1.342.074-.075.196-.075.27 0 .075.075.075.196 0 .27-.938.938-2.185 1.454-3.512 1.454z" transform="translate(-608 -755) translate(381 744) translate(228 12)"/>
                    <path fill="#020303" fill-rule="nonzero" d="M8.307 11.173c-1.379 0-2.1-1.345-2.1-2.674 0-.827.213-1.516.618-1.992.374-.44.9-.683 1.482-.683 1.203 0 2.102 1.11 2.102 2.102 0 .105-.086.19-.191.19-.106 0-.191-.085-.191-.19 0-.718-.654-1.72-1.72-1.72-1.044 0-1.719.9-1.719 2.293 0 1.139.59 2.292 1.72 2.292 1.261 0 1.719-1.028 1.719-1.72 0-.104.085-.19.191-.19.105 0 .191.086.191.19 0 .471-.174.975-.464 1.348-.268.344-.77.754-1.638.754" transform="translate(-608 -755) translate(381 744) translate(228 12)"/>
                    <path stroke="#6D747F" stroke-linecap="round" stroke-linejoin="round" d="M8.307 11.173c-1.379 0-2.1-1.345-2.1-2.674 0-.827.213-1.516.618-1.992.374-.44.9-.683 1.482-.683 1.203 0 2.102 1.11 2.102 2.102 0 .105-.086.19-.191.19-.106 0-.191-.085-.191-.19 0-.718-.654-1.72-1.72-1.72-1.044 0-1.719.9-1.719 2.293 0 1.139.59 2.292 1.72 2.292 1.261 0 1.719-1.028 1.719-1.72 0-.104.085-.19.191-.19.105 0 .191.086.191.19 0 .471-.174.975-.464 1.348-.268.344-.77.754-1.638.754z" transform="translate(-608 -755) translate(381 744) translate(228 12)"/>
                </g>
            </g>
        </g>
    </g>
</svg>
